<?xml version="1.0" standalone="no"?>
<!DOCTYPE svg PUBLIC "-//W3C//DTD SVG 20010904//EN"
 "http://www.w3.org/TR/2001/REC-SVG-20010904/DTD/svg10.dtd">
<svg version="1.0" xmlns="http://www.w3.org/2000/svg"
 width="3000.000000pt" height="3000.000000pt" viewBox="0 0 3000.000000 3000.000000"
 preserveAspectRatio="xMidYMid meet">

<g transform="translate(0.000000,3000.000000) scale(0.100000,-0.100000)"
fill="#000000" stroke="none">
<path d="M14767 29414 c-5 -5 -149 -45 -922 -255 -143 -39 -267 -76 -275 -82
-22 -18 -467 -414 -530 -473 -59 -54 -145 -132 -445 -399 -104 -93 -192 -172
-195 -175 -3 -3 -97 -88 -210 -189 -113 -101 -243 -218 -290 -261 -47 -42
-200 -179 -340 -305 -140 -125 -295 -265 -345 -310 -85 -78 -379 -341 -786
-705 -101 -90 -186 -167 -189 -170 -5 -6 -355 -320 -446 -400 -28 -25 -163
-146 -300 -270 -137 -123 -289 -260 -339 -304 -49 -45 -137 -124 -195 -177
-58 -52 -213 -192 -345 -309 -132 -118 -262 -235 -290 -261 -27 -25 -65 -59
-83 -75 -37 -34 -34 -15 -62 -349 -11 -132 -22 -268 -25 -302 -3 -34 -21 -247
-40 -475 -19 -227 -38 -449 -43 -492 -17 -154 -28 -134 148 -260 85 -61 244
-176 353 -254 l198 -143 127 117 c70 64 163 151 207 193 44 42 179 169 300
281 121 113 265 248 320 300 96 91 301 282 470 439 44 41 118 111 165 156 47
44 218 205 380 356 588 550 647 605 789 738 79 75 153 144 165 154 12 10 53
49 91 85 39 37 99 94 135 127 36 33 139 130 230 215 258 242 330 310 410 384
41 38 116 108 165 154 123 117 194 183 375 352 85 79 225 210 310 290 85 80
193 181 240 225 47 44 153 143 235 220 207 194 441 413 495 462 100 91 109
101 105 107 -3 3 -2 4 2 1 10 -8 63 47 56 58 -3 6 -2 7 4 4 12 -7 44 28 35 39
-4 4 -2 4 4 1 6 -4 50 31 98 76 l87 82 -3 108 c-1 63 -7 107 -13 107 -7 0 -6
3 0 8 13 9 13 62 1 81 -6 10 -5 12 2 7 16 -10 15 7 0 23 -8 9 -9 12 -1 7 8 -4
11 49 11 209 0 133 -4 212 -10 209 -5 -3 -4 3 3 14 11 17 10 24 -2 38 -8 10
-9 15 -2 11 9 -6 12 45 10 218 -1 124 0 225 3 225 9 0 5 94 -4 109 -6 9 -5 12
1 8 6 -4 9 16 9 52 -1 37 -5 57 -11 53 -5 -3 -4 2 4 11 11 14 11 17 0 17 -11
0 -11 2 1 10 13 9 13 10 0 10 -9 0 -11 3 -5 8 6 4 11 25 11 47 0 22 -5 43 -11
47 -6 5 -6 8 0 8 6 0 11 32 12 70 2 70 2 75 -10 64z"/>
<path d="M13619 24704 c-8 -10 -385 -366 -839 -793 -454 -426 -892 -838 -975
-916 -82 -78 -490 -460 -905 -850 -415 -389 -793 -745 -840 -789 -47 -45 -333
-314 -637 -599 l-551 -517 5 -5458 c3 -3001 9 -5464 14 -5473 4 -9 1036 -889
2291 -1955 1256 -1066 2331 -1980 2389 -2030 l106 -92 299 -6 c164 -4 337 -9
384 -11 47 -2 225 -7 395 -10 171 -3 351 -8 400 -11 l91 -4 98 72 99 71 -39
36 c-22 20 -189 166 -372 325 -183 159 -329 293 -325 297 5 3 418 309 918 679
1097 811 1534 1134 2012 1487 198 148 747 554 1220 903 472 349 870 647 886
661 l28 27 -5 433 c-2 239 -5 768 -5 1176 l-1 742 -72 78 c-105 115 -232 254
-428 468 -95 105 -194 213 -219 240 -62 67 -318 348 -521 570 -90 99 -207 227
-260 285 -53 58 -175 191 -271 295 -96 105 -289 317 -430 470 -446 489 -433
473 -419 490 7 8 17 12 23 8 5 -3 7 -1 4 4 -8 12 250 299 265 295 5 -1 7 1 4
6 -3 5 25 41 61 81 37 40 75 84 86 97 10 13 23 22 28 18 5 -3 8 -2 7 3 -4 13
84 113 94 107 5 -3 7 -2 6 3 -4 14 73 103 84 97 4 -3 7 0 6 8 -2 7 3 12 10 10
6 -1 11 1 10 5 -5 13 64 93 74 87 5 -3 7 0 6 8 -2 7 3 12 10 10 6 -1 11 1 10
6 -5 14 74 102 86 95 6 -3 8 -3 4 2 -8 9 62 91 74 87 5 -1 7 1 6 6 -4 12 104
132 114 126 5 -3 7 -2 6 3 -4 13 84 113 94 107 4 -3 7 -2 6 3 -4 13 84 113 94
107 4 -3 7 -2 6 3 -5 14 75 102 86 96 6 -3 8 -3 4 2 -4 4 11 29 34 54 116 129
153 166 160 163 4 -1 7 1 6 6 -4 12 94 122 104 116 5 -3 7 -1 6 4 -2 5 12 27
31 48 83 94 137 149 144 146 4 -1 6 2 5 6 -4 12 93 118 104 114 4 -1 7 1 6 6
-5 13 95 121 106 115 6 -3 8 -3 4 2 -9 9 62 91 75 87 5 -1 6 2 3 7 -7 11 19
33 28 23 4 -4 6 -2 4 4 -4 15 72 105 83 98 5 -3 8 0 7 8 -2 7 3 12 10 10 8 -1
11 2 8 7 -6 10 144 177 156 173 5 -1 7 4 6 10 -2 7 3 12 10 10 6 -1 11 2 10 7
-3 8 20 36 88 111 l22 25 5 1201 5 1201 -136 100 c-76 55 -274 200 -442 323
-168 123 -361 264 -430 315 -69 51 -262 192 -430 315 -168 123 -348 255 -402
294 -53 39 -165 122 -250 183 -84 62 -241 177 -348 256 -107 79 -348 255 -535
392 -187 137 -401 294 -475 349 -74 55 -185 136 -247 180 -179 130 -1332 975
-1430 1049 -36 27 -50 43 -45 53 4 7 46 53 92 101 47 48 172 179 279 291 l193
202 -73 1 c-41 0 -81 2 -89 3 -8 2 -96 7 -195 10 -99 4 -196 9 -215 11 -19 2
-111 7 -205 10 -93 3 -190 8 -215 10 -25 2 -117 7 -205 10 -88 3 -192 8 -231
11 -59 5 -73 3 -85 -12z m-1642 -6581 c-4 -3 -3 -11 3 -18 6 -8 2 -11 -14 -11
-12 0 -23 6 -23 13 0 6 4 10 8 7 4 -2 10 0 14 6 3 5 9 10 12 10 4 0 3 -3 0 -7z
m4079 -5 c4 -6 3 -8 -4 -4 -6 3 -15 -2 -21 -11 -6 -10 -11 -13 -11 -7 0 9 19
34 26 34 2 0 6 -5 10 -12z m72 0 c-4 -18 44 -17 67 1 18 15 19 15 7 0 -6 -9
-10 -18 -8 -20 3 -2 -24 -4 -59 -4 -35 0 -61 3 -58 7 2 5 8 6 13 3 4 -3 13 2
20 10 15 18 21 19 18 3z m160 0 c-4 -18 44 -17 65 1 15 13 18 13 15 1 -4 -20
42 -20 67 -1 18 15 19 15 7 0 -6 -9 -10 -18 -8 -20 3 -2 -33 -4 -78 -4 -83 0
-86 1 -77 33 3 8 11 0 9 -10z m240 0 c-4 -18 44 -17 65 1 15 13 18 13 15 1 -4
-20 42 -20 67 -1 18 15 19 15 7 0 -6 -9 -10 -18 -8 -20 3 -2 -33 -4 -78 -4
-83 0 -86 1 -77 33 3 8 11 0 9 -10z m240 0 c-4 -18 44 -17 65 1 15 13 18 13
15 1 -4 -20 42 -20 67 -1 18 15 19 15 7 0 -6 -9 -10 -18 -8 -20 3 -2 -33 -4
-78 -4 -83 0 -86 1 -77 33 3 8 11 0 9 -10z m240 0 c-4 -18 44 -17 65 1 15 13
18 13 15 1 -4 -20 42 -20 67 -1 18 15 19 15 7 0 -6 -9 -10 -18 -8 -20 3 -2
-33 -4 -78 -4 -83 0 -86 1 -77 33 3 8 11 0 9 -10z m240 0 c-4 -18 44 -17 65 1
15 13 18 13 15 1 -4 -19 42 -21 64 -2 14 12 16 11 14 -4 -3 -16 -13 -19 -88
-19 -85 -1 -88 1 -79 33 3 8 11 0 9 -10z m-5235 -15 c-3 -7 -6 -13 -8 -13 -2
0 -5 6 -8 13 -3 8 1 14 8 14 7 0 11 -6 8 -14z m35 -8 c-3 -3 -9 2 -12 12 -6
14 -5 15 5 6 7 -7 10 -15 7 -18z m900 16 c-3 -28 3 -33 16 -15 14 18 15 18 21
1 7 -17 8 -17 20 0 13 17 14 17 21 0 5 -15 9 -16 15 -5 7 10 9 10 9 -1 0 -11
4 -9 15 5 11 14 14 15 9 2 -6 -18 10 -19 35 -4 10 6 12 5 7 -3 -5 -8 -3 -12 5
-10 8 1 20 1 27 0 9 -1 12 -283 12 -1373 l0 -1373 252 255 c617 625 2087 2116
2294 2329 138 141 164 163 192 164 19 1 31 6 28 13 -2 6 7 10 22 9 15 -1 32 2
39 7 12 9 30 -8 19 -19 -3 -4 -6 -1 -6 6 0 7 -4 9 -10 6 -5 -3 -10 -10 -10
-14 0 -10 41 -8 58 2 6 5 18 5 25 0 6 -4 315 -8 685 -8 591 0 672 2 673 15 0
10 3 8 9 -5 l9 -20 1 20 1 20 9 -20 9 -20 1 20 1 20 9 -20 9 -20 1 20 1 20 9
-20 c6 -13 9 -15 9 -5 1 12 3 12 10 2 11 -17 21 -17 32 0 5 8 9 8 9 2 0 -6 8
-11 18 -11 9 0 34 -1 56 -2 l38 -1 -36 -40 c-20 -23 -34 -46 -30 -52 4 -6 3
-8 -3 -5 -13 8 -36 -17 -25 -28 4 -5 2 -5 -4 -2 -14 8 -78 -58 -69 -72 4 -7 1
-10 -7 -9 -7 2 -12 -3 -10 -10 1 -8 -2 -11 -7 -8 -13 9 -274 -271 -265 -285 4
-7 3 -9 -3 -6 -15 9 -316 -310 -307 -325 4 -6 3 -8 -3 -5 -15 9 -286 -280
-277 -294 4 -7 3 -9 -3 -6 -15 9 -156 -140 -147 -154 4 -7 3 -9 -4 -5 -14 9
-725 -751 -716 -766 4 -6 3 -8 -3 -5 -15 9 -157 -138 -148 -154 5 -7 4 -10 -2
-6 -14 9 -147 -128 -138 -142 4 -7 1 -10 -7 -9 -7 2 -12 -3 -10 -10 1 -8 -2
-11 -6 -8 -14 9 -285 -281 -276 -295 4 -7 3 -9 -3 -6 -6 4 -47 -32 -92 -79
-81 -85 -95 -115 -68 -143 10 -10 9 -12 -3 -9 -8 2 -14 -2 -15 -9 0 -23 -11
-22 -11 2 0 13 3 22 7 19 4 -2 5 5 2 17 -5 20 -6 20 -18 -3 -8 -15 -8 -27 -2
-35 5 -7 6 -13 3 -13 -4 0 5 -16 20 -35 14 -19 31 -32 37 -28 6 3 7 1 3 -5 -7
-12 552 -657 562 -648 7 8 32 -14 32 -27 0 -6 -7 -2 -15 9 -8 10 -15 15 -15
11 0 -16 193 -226 203 -220 5 3 7 1 4 -4 -8 -13 71 -105 83 -98 5 3 12 0 16
-6 4 -8 3 -9 -4 -5 -28 17 -5 -13 94 -125 59 -67 110 -116 116 -113 7 4 8 2 4
-4 -4 -7 151 -192 384 -457 349 -397 419 -474 394 -433 -4 7 -3 8 5 4 6 -4 9
-11 6 -16 -3 -6 205 -249 462 -542 257 -293 503 -573 545 -623 l78 -90 -37 -3
c-21 -2 -44 -9 -52 -15 -12 -9 -13 -9 -7 1 5 8 -2 12 -23 12 -17 0 -31 -5 -31
-11 0 -5 5 -7 12 -3 7 5 8 3 3 -6 -6 -10 -11 -9 -22 5 -9 14 -13 15 -13 4 0
-8 -3 -10 -8 -4 -7 11 -362 15 -362 5 0 -3 6 -12 13 -20 10 -12 9 -12 -4 -2
-9 6 -19 9 -23 5 -4 -4 -5 -1 -1 7 5 13 -70 15 -586 15 l-591 0 -25 30 c-14
17 -42 48 -62 70 -20 22 -70 78 -111 125 -90 102 -85 96 -135 151 -22 24 -94
105 -160 179 -66 74 -122 137 -125 140 -3 3 -59 66 -125 140 -66 74 -122 137
-125 140 -3 3 -59 66 -125 140 -66 74 -124 140 -130 146 -5 6 -44 48 -85 95
-41 46 -97 108 -125 139 -27 31 -84 94 -125 140 -41 46 -97 109 -125 140 -27
31 -84 94 -125 140 -41 46 -118 132 -170 190 -52 58 -129 144 -170 190 -154
174 -192 211 -206 199 -8 -6 -11 -15 -8 -20 3 -5 0 -8 -8 -7 -7 2 -12 -3 -11
-9 2 -7 -1 -12 -5 -10 -5 1 -24 -14 -42 -33 -80 -86 -250 -268 -280 -300 -53
-58 -147 -158 -288 -307 -73 -77 -144 -153 -157 -169 l-25 -29 0 -802 c0 -528
-3 -803 -10 -804 -5 -1 -18 -2 -27 -3 -10 -1 -24 -5 -32 -10 -9 -6 -12 -5 -8
0 3 6 -5 10 -19 10 -18 0 -23 -4 -19 -15 4 -11 1 -11 -14 3 -14 13 -21 14 -27
5 -5 -8 -3 -10 6 -4 9 6 11 4 5 -5 -6 -10 -11 -10 -20 4 -12 15 -13 15 -20 -1
-6 -17 -7 -17 -21 1 -10 15 -14 16 -15 5 0 -10 -2 -10 -6 -1 -3 8 -11 5 -25
-10 -11 -13 -17 -18 -14 -13 2 6 1 17 -5 25 -7 13 -9 13 -9 0 0 -13 -1 -13
-10 0 -8 13 -10 13 -10 -2 0 -9 -4 -19 -9 -22 -5 -4 -7 4 -4 16 4 19 3 20 -6
8 -9 -13 -11 -13 -11 -1 0 11 -4 10 -14 -4 -13 -18 -13 -18 -24 1 -8 14 -12
15 -12 4 0 -13 -1 -13 -11 0 -9 12 -10 11 -6 -8 3 -12 1 -20 -4 -16 -5 3 -9
13 -9 22 0 15 -2 15 -10 2 -9 -13 -10 -13 -10 0 0 13 -2 13 -9 0 -6 -8 -7 -19
-5 -25 3 -5 -4 1 -15 14 -13 14 -21 18 -21 10 0 -11 -3 -11 -11 1 -9 12 -10
11 -6 -8 3 -12 1 -20 -4 -16 -5 3 -9 13 -9 22 0 15 -2 15 -10 2 -9 -13 -10
-13 -10 0 0 13 -2 13 -9 0 -6 -8 -7 -19 -5 -25 3 -5 -4 1 -15 14 -13 14 -21
18 -21 10 0 -11 -3 -11 -11 1 -9 12 -10 11 -6 -8 3 -12 1 -20 -4 -16 -5 3 -9
13 -9 22 0 15 -2 15 -10 2 -9 -13 -10 -13 -10 0 0 13 -2 13 -9 0 -6 -8 -7 -19
-5 -25 3 -5 -4 1 -15 14 -13 14 -21 18 -21 10 0 -11 -3 -11 -11 1 -9 12 -10
11 -6 -8 3 -12 1 -20 -4 -16 -5 3 -9 13 -9 22 0 15 -2 15 -10 2 -9 -13 -10
-13 -10 0 0 13 -2 13 -9 0 -6 -8 -7 -19 -5 -25 3 -5 -4 1 -15 14 -13 14 -21
18 -21 10 0 -11 -3 -11 -11 1 -9 12 -10 11 -6 -8 3 -12 1 -20 -4 -16 -5 3 -9
13 -9 22 0 15 -2 15 -10 2 -9 -13 -10 -13 -10 0 0 13 -2 13 -9 0 -6 -8 -7 -19
-5 -25 3 -5 -4 1 -15 14 -13 14 -21 18 -21 10 0 -11 -3 -11 -11 1 -9 12 -10
11 -6 -8 3 -12 1 -20 -4 -16 -5 3 -9 13 -9 22 0 15 -2 15 -10 2 -9 -13 -10
-13 -10 0 0 13 -2 13 -9 0 -6 -8 -7 -19 -5 -25 3 -5 -4 1 -15 14 -13 14 -21
18 -21 10 0 -11 -3 -11 -11 1 -9 12 -10 11 -6 -8 3 -12 1 -20 -4 -16 -5 3 -9
13 -9 22 0 15 -2 15 -10 2 -9 -13 -10 -13 -10 0 0 13 -2 13 -9 0 -6 -8 -7 -19
-5 -25 3 -5 -4 1 -15 14 -13 14 -21 18 -21 10 0 -11 -3 -11 -11 1 -9 12 -10
11 -6 -8 3 -12 1 -20 -4 -16 -5 3 -9 13 -9 22 0 15 -2 15 -10 2 -9 -13 -10
-13 -10 0 0 13 -2 13 -9 0 -6 -8 -7 -18 -4 -24 3 -5 1 -6 -5 -2 -6 4 -9 12 -6
19 3 8 -8 12 -31 13 -19 1 -35 -3 -35 -8 0 -5 6 -6 13 -2 8 5 8 2 -2 -9 -14
-18 -22 -22 -20 -9 3 18 -2 32 -12 32 -5 0 -7 -5 -3 -12 5 -7 3 -8 -7 -2 -19
12 -120 14 -113 3 3 -5 9 -7 14 -4 5 3 11 1 15 -5 4 -6 11 -7 17 -4 7 4 8 2 4
-5 -6 -8 -12 -9 -20 -2 -7 6 -15 9 -18 6 -3 -3 -11 1 -18 10 -7 9 -29 15 -53
15 l-40 0 7 3207 c5 2388 9 3209 18 3214 6 4 20 6 30 4 10 -2 18 2 18 8 0 8 3
8 8 2 9 -13 52 -17 52 -5 0 5 -9 7 -20 5 -11 -2 -18 0 -16 4 8 13 57 6 66 -9
7 -10 10 -11 10 -2 0 6 5 12 11 12 5 0 8 -4 5 -8 -6 -10 115 -9 131 1 6 4 15
3 18 -3 5 -8 12 -7 23 2 9 7 13 8 10 3 -4 -7 7 -11 27 -11 18 0 32 3 29 7 -2
4 3 9 11 12 8 4 12 1 9 -6 -3 -9 82 -12 366 -12 323 0 370 2 371 15 0 10 3 8
9 -5 l9 -20 1 20 1 20 9 -20 c6 -14 9 -16 10 -5 2 8 2 18 2 21 -1 3 5 6 13 6
8 0 14 -3 13 -6z m-674 -9 c3 -5 -1 -9 -9 -9 -8 0 -12 4 -9 9 3 4 7 8 9 8 2 0
6 -4 9 -8z m40 0 c3 -5 -1 -9 -9 -9 -8 0 -12 4 -9 9 3 4 7 8 9 8 2 0 6 -4 9
-8z m40 0 c3 -5 -1 -9 -9 -9 -8 0 -12 4 -9 9 3 4 7 8 9 8 2 0 6 -4 9 -8z m40
0 c3 -5 -1 -9 -9 -9 -8 0 -12 4 -9 9 3 4 7 8 9 8 2 0 6 -4 9 -8z m40 0 c3 -5
-1 -9 -9 -9 -8 0 -12 4 -9 9 3 4 7 8 9 8 2 0 6 -4 9 -8z m40 0 c3 -5 -1 -9 -9
-9 -8 0 -12 4 -9 9 3 4 7 8 9 8 2 0 6 -4 9 -8z m40 0 c3 -5 -1 -9 -9 -9 -8 0
-12 4 -9 9 3 4 7 8 9 8 2 0 6 -4 9 -8z m40 0 c3 -5 -1 -9 -9 -9 -8 0 -12 4 -9
9 3 4 7 8 9 8 2 0 6 -4 9 -8z m40 0 c3 -5 -1 -9 -9 -9 -8 0 -12 4 -9 9 3 4 7
8 9 8 2 0 6 -4 9 -8z m40 0 c3 -5 -1 -9 -9 -9 -8 0 -12 4 -9 9 3 4 7 8 9 8 2
0 6 -4 9 -8z m40 0 c3 -5 -1 -9 -9 -9 -8 0 -12 4 -9 9 3 4 7 8 9 8 2 0 6 -4 9
-8z m40 0 c3 -5 -1 -9 -9 -9 -8 0 -12 4 -9 9 3 4 7 8 9 8 2 0 6 -4 9 -8z m40
0 c3 -5 -1 -9 -9 -9 -8 0 -12 4 -9 9 3 4 7 8 9 8 2 0 6 -4 9 -8z m40 0 c3 -5
-1 -9 -9 -9 -8 0 -12 4 -9 9 3 4 7 8 9 8 2 0 6 -4 9 -8z m40 0 c3 -5 -1 -9 -9
-9 -8 0 -12 4 -9 9 3 4 7 8 9 8 2 0 6 -4 9 -8z m351 -166 c0 -19 -3 -37 -6
-40 -4 -5 -4 62 0 72 4 10 7 -4 6 -32z m4356 -9 c-6 -8 -9 -17 -6 -20 3 -4 2
-5 -2 -2 -3 3 -13 -1 -22 -7 -9 -7 -5 0 8 15 25 27 43 39 22 14z m-4356 -56
c3 -5 2 -12 -3 -15 -5 -3 -9 1 -9 9 0 17 3 19 12 6z m4266 -44 c-6 -8 -7 -18
-3 -22 4 -5 2 -5 -4 -2 -12 7 -47 -25 -39 -36 3 -4 2 -5 -2 -2 -3 3 -18 -5
-32 -17 -14 -13 -1 3 29 35 49 52 79 77 51 44z m-101 -111 c0 -2 -8 -10 -17
-17 -16 -13 -17 -12 -4 4 13 16 21 21 21 13z m-4165 -45 c3 -5 2 -12 -3 -15
-5 -3 -9 1 -9 9 0 17 3 19 12 6z m4116 -4 c-6 -8 -7 -18 -3 -22 4 -5 2 -5 -4
-2 -12 7 -47 -25 -39 -36 3 -4 2 -5 -2 -2 -10 8 -33 -16 -26 -28 4 -6 1 -7 -6
-2 -9 5 1 22 35 56 45 46 70 65 45 36z m-4116 -136 c3 -5 2 -12 -3 -15 -5 -3
-9 1 -9 9 0 17 3 19 12 6z m4001 -3 c4 -6 3 -8 -3 -5 -12 7 -46 -26 -38 -36 3
-4 2 -5 -2 -2 -8 7 -64 -46 -58 -55 2 -4 -3 -7 -11 -7 -9 0 10 25 43 59 31 32
58 58 60 58 1 0 5 -5 9 -12z m-4001 -137 c3 -5 2 -12 -3 -15 -5 -3 -9 1 -9 9
0 17 3 19 12 6z m3827 -34 c-12 -13 -20 -27 -17 -30 3 -4 2 -5 -2 -2 -10 8
-63 -47 -56 -58 4 -6 1 -7 -6 -2 -9 5 3 23 40 61 52 53 84 77 41 31z m-3826
-122 c1 -8 -1 -17 -5 -19 -4 -3 -7 6 -7 19 0 25 8 25 12 0z m3685 -28 c-6 -8
-7 -18 -3 -22 4 -5 2 -5 -4 -2 -12 7 -47 -25 -39 -36 3 -4 2 -5 -2 -2 -3 3
-18 -5 -32 -17 -14 -13 -1 3 29 35 49 52 79 77 51 44z m-3686 -16 c3 -5 2 -12
-3 -15 -5 -3 -9 1 -9 9 0 17 3 19 12 6z m0 -80 c3 -5 2 -12 -3 -15 -5 -3 -9 1
-9 9 0 17 3 19 12 6z m3585 -15 c0 -2 -8 -10 -17 -17 -16 -13 -17 -12 -4 4 13
16 21 21 21 13z m-49 -49 c-6 -8 -7 -18 -3 -22 4 -5 2 -5 -4 -2 -12 7 -47 -25
-39 -36 3 -4 2 -5 -2 -2 -10 8 -43 -26 -36 -38 4 -6 1 -7 -6 -2 -9 5 3 23 40
61 50 50 76 71 50 41z m-3536 -96 c3 -5 2 -12 -3 -15 -5 -3 -9 1 -9 9 0 17 3
19 12 6z m3406 -44 c-6 -8 -7 -18 -3 -22 4 -5 1 -5 -6 -1 -10 6 -10 11 -1 22
6 8 14 14 16 14 3 0 0 -6 -6 -13z m-46 -57 c4 -6 1 -9 -7 -8 -7 2 -12 -4 -10
-12 2 -8 0 -12 -4 -7 -4 4 -17 -1 -28 -10 -12 -10 -8 -3 8 15 34 36 33 36 41
22z m-3360 -39 c3 -5 2 -12 -3 -15 -5 -3 -9 1 -9 9 0 17 3 19 12 6z m3217
-104 c-29 -29 -50 -56 -47 -58 3 -3 -2 -6 -11 -6 -9 0 8 24 43 59 31 32 60 58
62 58 3 0 -18 -24 -47 -53z m-3217 -16 c3 -5 2 -12 -3 -15 -5 -3 -9 1 -9 9 0
17 3 19 12 6z m0 -40 c3 -5 2 -12 -3 -15 -5 -3 -9 1 -9 9 0 17 3 19 12 6z
m3097 -74 c-12 -13 -20 -27 -17 -30 3 -4 2 -5 -2 -2 -8 7 -64 -46 -58 -55 2
-4 -3 -7 -11 -7 -9 0 10 25 43 59 55 56 90 83 45 35z m-3097 -66 c3 -5 2 -12
-3 -15 -5 -3 -9 1 -9 9 0 17 3 19 12 6z m2956 -84 c-6 -8 -7 -18 -3 -22 4 -5
2 -5 -4 -2 -12 7 -47 -25 -39 -36 3 -4 2 -5 -2 -2 -3 3 -18 -5 -32 -17 -14
-13 -1 3 29 35 49 52 79 77 51 44z m-2955 -72 c1 -8 -1 -17 -5 -19 -4 -3 -7 6
-7 19 0 25 8 25 12 0z m-1 -44 c3 -5 2 -12 -3 -15 -5 -3 -9 1 -9 9 0 17 3 19
12 6z m2855 5 c0 -2 -8 -10 -17 -17 -16 -13 -17 -12 -4 4 13 16 21 21 21 13z
m-49 -49 c-6 -8 -7 -18 -3 -22 4 -5 2 -5 -4 -2 -12 7 -47 -25 -39 -36 3 -4 2
-5 -2 -2 -3 3 -18 -5 -32 -17 -14 -13 -1 3 29 35 49 52 79 77 51 44z m-2799
-41 c-4 -6 -7 -14 -7 -18 0 -19 -11 -14 -11 6 0 12 6 23 13 23 6 0 9 -5 5 -11z
m2698 -70 c0 -2 -8 -10 -17 -17 -16 -13 -17 -12 -4 4 13 16 21 21 21 13z m-43
-51 c0 -8 -3 -12 -7 -10 -9 6 -52 -40 -45 -48 3 -4 2 -5 -2 -2 -10 8 -33 -16
-26 -28 4 -6 1 -7 -6 -2 -9 5 1 22 35 56 27 27 49 49 49 49 1 0 2 -7 2 -15z
m-2662 -34 c3 -5 2 -12 -3 -15 -5 -3 -9 1 -9 9 0 17 3 19 12 6z m0 -60 c3 -5
2 -12 -3 -15 -5 -3 -9 1 -9 9 0 17 3 19 12 6z m2532 -39 c-10 -10 -14 -22 -10
-27 5 -4 2 -5 -5 -1 -11 6 -10 12 4 27 9 10 19 19 22 19 3 0 -2 -8 -11 -18z
m-2532 -21 c3 -5 2 -12 -3 -15 -5 -3 -9 1 -9 9 0 17 3 19 12 6z m2486 -24 c-6
-8 -7 -18 -3 -22 4 -5 2 -5 -4 -2 -14 8 -57 -36 -47 -48 5 -4 2 -5 -5 0 -10 5
-4 17 24 46 37 38 58 53 35 26z m-104 -115 c-10 -10 -14 -22 -10 -27 5 -4 3
-5 -3 -2 -14 8 -47 -26 -37 -39 5 -5 4 -6 -1 -1 -5 4 -21 -3 -35 -15 -14 -12
1 5 34 40 33 34 61 62 64 62 2 0 -3 -8 -12 -18z m-2381 -58 c1 -9 0 -13 -4
-10 -3 4 -7 14 -8 22 -1 9 0 13 4 10 3 -4 7 -14 8 -22z m2225 -107 c-6 -8 -7
-18 -3 -22 4 -5 2 -5 -4 -2 -12 7 -47 -25 -39 -36 3 -4 2 -5 -2 -2 -3 3 -18
-5 -32 -17 -14 -13 -1 3 29 35 49 52 79 77 51 44z m-101 -111 c0 -2 -8 -10
-17 -17 -16 -13 -17 -12 -4 4 13 16 21 21 21 13z m-49 -49 c-6 -8 -7 -18 -3
-22 4 -5 2 -5 -4 -2 -12 7 -47 -25 -39 -36 3 -4 2 -5 -2 -2 -10 8 -43 -26 -36
-38 4 -6 1 -7 -6 -2 -9 5 3 23 40 61 50 50 76 71 50 41z m-2075 -92 c-1 -8 -5
-17 -8 -21 -5 -4 -4 16 1 34 3 9 9 -1 7 -13z m1945 -48 c-6 -8 -7 -18 -3 -22
4 -5 1 -5 -6 -1 -10 6 -10 11 -1 22 6 8 14 14 16 14 3 0 0 -6 -6 -13z m-46
-57 c4 -6 1 -9 -7 -8 -7 2 -12 -4 -10 -12 2 -8 0 -12 -4 -7 -4 4 -17 -1 -28
-10 -12 -10 -8 -3 8 15 34 36 33 36 41 22z m-65 -64 c0 -2 -8 -10 -17 -17 -16
-13 -17 -12 -4 4 13 16 21 21 21 13z m-13 -138 c-6 -9 -12 -16 -12 -15 0 1 -6
9 -12 18 -10 12 -8 15 11 15 20 0 22 -3 13 -18z m103 -104 c0 -8 -19 -13 -24
-6 -3 5 1 9 9 9 8 0 15 -2 15 -3z m7 -41 c0 -9 -4 -10 -14 -2 -7 6 -13 12 -13
14 0 1 6 2 13 2 8 0 14 -6 14 -14z m63 -39 c0 -8 -19 -13 -24 -6 -3 5 1 9 9 9
8 0 15 -2 15 -3z m35 -51 c-1 -10 3 -25 9 -33 9 -13 9 -13 -6 -2 -13 10 -16
26 -9 50 4 11 9 -2 6 -15z m47 -68 c2 3 5 -2 5 -10 0 -19 0 -19 -23 7 -12 14
-13 18 -3 10 9 -6 18 -10 21 -7z m51 -60 c-3 -9 -8 -14 -10 -11 -3 3 -2 9 2
15 9 16 15 13 8 -4z m49 -39 c7 5 8 2 4 -5 -6 -9 -13 -8 -27 5 -10 9 -19 22
-19 28 0 6 7 0 16 -12 8 -12 20 -19 26 -16z m29 -40 c-9 -10 -7 -17 5 -27 10
-8 20 -13 23 -11 3 1 6 -4 6 -10 1 -7 7 -12 14 -10 7 1 9 -2 6 -9 -5 -7 -19 1
-41 22 -26 25 -31 36 -23 46 6 7 14 13 16 13 3 0 0 -6 -6 -14z m121 -140 c6 4
8 3 5 -3 -4 -6 0 -16 8 -23 8 -7 15 -17 15 -22 0 -5 -13 7 -30 25 -16 19 -30
39 -30 43 0 5 5 1 11 -9 6 -9 15 -14 21 -11z m128 -161 c14 -19 14 -19 -2 -6
-10 7 -18 18 -18 24 0 6 1 8 3 6 1 -2 9 -13 17 -24z m42 -39 c7 4 8 2 4 -5 -9
-13 -26 -5 -25 12 0 9 2 8 6 -1 2 -6 10 -9 15 -6z m48 -42 c0 -8 -19 -13 -24
-6 -3 5 1 9 9 9 8 0 15 -2 15 -3z m23 -41 c-4 -10 -2 -14 4 -10 5 3 10 -1 10
-9 0 -13 -2 -13 -15 0 -8 8 -11 19 -8 25 11 17 16 13 9 -6z m88 -97 c5 3 8 0
7 -7 -2 -7 2 -13 9 -14 6 0 14 -3 18 -7 4 -3 0 -5 -9 -4 -19 3 -56 36 -56 50
0 6 5 3 11 -7 6 -9 15 -15 20 -11z m74 -79 c1 -7 7 -11 14 -9 7 1 9 -2 6 -9
-9 -13 -28 3 -31 27 -1 9 1 13 4 9 4 -4 7 -12 7 -18z m33 -34 c-4 -13 22 -54
31 -49 4 3 8 -2 8 -11 0 -11 -9 -6 -28 17 -16 18 -26 37 -23 42 6 10 15 11 12
1z m79 -88 c0 -8 -4 -12 -9 -9 -5 3 -6 10 -3 15 9 13 12 11 12 -6z m110 -132
c0 -10 -4 -10 -16 -1 -9 7 -18 13 -20 15 -2 1 5 1 16 0 11 0 20 -7 20 -14z
m20 -28 c0 -8 -4 -12 -9 -9 -5 3 -6 10 -3 15 9 13 12 11 12 -6z m25 -22 c0
-17 40 -63 49 -57 5 3 8 0 7 -8 -2 -7 3 -12 10 -10 8 1 11 -2 6 -10 -9 -14
-81 62 -81 86 0 16 8 15 9 -1z m98 -87 c0 -2 -8 -10 -17 -17 -16 -13 -17 -12
-4 4 13 16 21 21 21 13z m14 -24 c3 -5 -1 -9 -9 -9 -8 0 -12 4 -9 9 3 4 7 8 9
8 2 0 6 -4 9 -8z m52 -85 c3 -21 1 -21 -20 2 -17 19 -17 19 0 17 9 -2 18 -10
20 -19z m111 -114 c0 -9 -4 -10 -14 -2 -7 6 -13 12 -13 14 0 1 6 2 13 2 8 0
14 -6 14 -14z m29 -49 c2 -12 -1 -13 -12 -3 -7 6 -11 16 -8 21 7 11 17 3 20
-18z m29 -11 c-1 -10 3 -25 9 -33 9 -13 9 -13 -6 -2 -13 10 -16 26 -9 50 4 11
9 -2 6 -15z m70 -72 c3 -5 2 -12 -3 -15 -5 -3 -9 1 -9 9 0 17 3 19 12 6z m22
-54 c1 -11 1 -18 0 -16 -2 2 -8 11 -15 20 -9 12 -9 16 1 16 7 0 14 -9 14 -20z
m92 -103 c4 3 8 -1 8 -9 0 -13 -4 -12 -19 2 -10 9 -18 21 -18 27 0 6 5 3 11
-7 6 -9 14 -15 18 -13z m76 -76 c5 4 5 1 1 -6 -6 -10 -11 -10 -22 -1 -8 6 -14
14 -14 16 0 3 6 0 13 -6 8 -6 18 -7 22 -3z m55 -44 c0 -8 -19 -13 -24 -6 -3 5
1 9 9 9 8 0 15 -2 15 -3z m7 -29 c0 -8 -4 -12 -9 -9 -5 3 -6 10 -3 15 9 13 12
11 12 -6z m26 -30 c-7 -21 -12 -19 -10 4 0 11 5 18 9 15 4 -3 5 -11 1 -19z
m77 -100 c14 -19 14 -19 -2 -6 -10 7 -18 18 -18 24 0 6 1 8 3 6 1 -2 9 -13 17
-24z m29 -17 c-6 -8 23 -48 32 -43 5 4 8 1 7 -7 -2 -7 3 -12 10 -10 8 1 11 -2
7 -9 -10 -15 -54 29 -60 60 -2 13 -2 21 1 18 3 -3 5 -7 3 -9z m77 -92 c0 -14
-3 -23 -7 -20 -6 3 -6 22 0 42 3 10 7 -2 7 -22z m64 -52 c0 -8 -19 -13 -24 -6
-3 5 1 9 9 9 8 0 15 -2 15 -3z m7 -29 c0 -8 -4 -12 -9 -9 -5 3 -6 10 -3 15 9
13 12 11 12 -6z m26 -30 c-7 -21 -12 -19 -10 4 0 11 5 18 9 15 4 -3 5 -11 1
-19z m67 -49 c0 -2 -8 -10 -17 -17 -16 -13 -17 -12 -4 4 13 16 21 21 21 13z
m72 -110 c7 4 8 2 4 -5 -9 -14 -36 3 -36 23 0 6 5 3 11 -7 6 -9 15 -14 21 -11z
m45 -59 c1 -11 1 -18 0 -16 -2 2 -8 11 -15 20 -9 12 -9 16 1 16 7 0 14 -9 14
-20z m32 -33 c4 3 8 -1 8 -9 0 -11 -4 -12 -14 -4 -7 6 -13 17 -12 23 0 7 2 6
6 -2 2 -6 8 -10 12 -8z m127 -150 c2 -12 -1 -13 -12 -3 -7 6 -11 16 -8 21 7
11 17 3 20 -18z m95 -91 c7 -7 7 -13 1 -17 -5 -3 -17 3 -27 13 -15 17 -15 19
-1 17 9 -1 21 -7 27 -13z m37 -45 c-2 -7 3 -12 10 -10 6 1 11 -4 10 -10 -2 -7
4 -11 12 -10 8 2 12 0 8 -4 -11 -10 12 -35 25 -27 6 4 7 1 2 -6 -5 -9 -18 -2
-46 25 -21 20 -36 41 -33 46 8 12 14 10 12 -4z m79 -93 c0 -8 -4 -12 -9 -9 -5
3 -6 10 -3 15 9 13 12 11 12 -6z m26 -30 c-7 -21 -12 -19 -10 4 0 11 5 18 9
15 4 -3 5 -11 1 -19z m58 -52 c13 -16 12 -17 -3 -4 -10 7 -18 15 -18 17 0 8 8
3 21 -13z m46 -60 c0 -9 -4 -10 -14 -2 -7 6 -13 12 -13 14 0 1 6 2 13 2 8 0
14 -6 14 -14z m21 -36 c-1 -2 4 -12 12 -23 14 -19 14 -19 -7 0 -13 10 -20 23
-17 28 3 5 8 7 11 4 2 -2 3 -6 1 -9z m-5951 -202 c0 -8 -4 -12 -9 -9 -5 3 -6
10 -3 15 9 13 12 11 12 -6z m4503 9 c0 -8 -19 -13 -24 -6 -3 5 1 9 9 9 8 0 15
-2 15 -3z m40 0 c0 -8 -19 -13 -24 -6 -3 5 1 9 9 9 8 0 15 -2 15 -3z m60 1 c0
-2 -6 -8 -13 -14 -10 -8 -14 -7 -14 2 0 8 6 14 14 14 7 0 13 -1 13 -2z m43 -8
c3 -8 -1 -14 -8 -14 -7 0 -11 6 -8 14 3 7 6 13 8 13 2 0 5 -6 8 -13z m54 -4
c0 -9 -4 -10 -14 -2 -7 6 -13 12 -13 14 0 1 6 2 13 2 8 0 14 -6 14 -14z m47 1
c3 -8 2 -12 -4 -9 -6 3 -10 10 -10 16 0 14 7 11 14 -7z m53 -1 c0 -9 -4 -10
-14 -2 -7 6 -13 12 -13 14 0 1 6 2 13 2 8 0 14 -6 14 -14z m47 1 c3 -8 2 -12
-4 -9 -6 3 -10 10 -10 16 0 14 7 11 14 -7z m53 -1 c0 -9 -4 -10 -14 -2 -7 6
-13 12 -13 14 0 1 6 2 13 2 8 0 14 -6 14 -14z m47 1 c3 -8 2 -12 -4 -9 -6 3
-10 10 -10 16 0 14 7 11 14 -7z m53 -1 c0 -9 -4 -10 -14 -2 -7 6 -13 12 -13
14 0 1 6 2 13 2 8 0 14 -6 14 -14z m47 1 c3 -8 2 -12 -4 -9 -6 3 -10 10 -10
16 0 14 7 11 14 -7z m53 -1 c0 -9 -4 -10 -14 -2 -7 6 -13 12 -13 14 0 1 6 2
13 2 8 0 14 -6 14 -14z m47 1 c3 -8 2 -12 -4 -9 -6 3 -10 10 -10 16 0 14 7 11
14 -7z m56 10 c0 -8 -19 -13 -24 -6 -3 5 1 9 9 9 8 0 15 -2 15 -3z m31 -17
c-10 -9 -11 -8 -5 6 3 10 9 15 12 12 3 -3 0 -11 -7 -18z m69 18 c0 -2 -6 -8
-13 -14 -10 -8 -14 -7 -14 2 0 8 6 14 14 14 7 0 13 -1 13 -2z m31 -18 c-10 -9
-11 -8 -5 6 3 10 9 15 12 12 3 -3 0 -11 -7 -18z m69 18 c0 -2 -6 -8 -13 -14
-10 -8 -14 -7 -14 2 0 8 6 14 14 14 7 0 13 -1 13 -2z m60 -1 c0 -8 -19 -13
-24 -6 -3 5 1 9 9 9 8 0 15 -2 15 -3z m31 -17 c-10 -9 -11 -8 -5 6 3 10 9 15
12 12 3 -3 0 -11 -7 -18z m109 17 c0 -8 -19 -13 -24 -6 -3 5 1 9 9 9 8 0 15
-2 15 -3z m60 0 c0 -8 -19 -13 -24 -6 -3 5 1 9 9 9 8 0 15 -2 15 -3z m51 -11
c13 -16 12 -17 -3 -4 -17 13 -22 21 -14 21 2 0 10 -8 17 -17z m73 1 c3 -8 2
-12 -4 -9 -6 3 -10 10 -10 16 0 14 7 11 14 -7z m27 -1 c13 -16 12 -17 -3 -4
-17 13 -22 21 -14 21 2 0 10 -8 17 -17z m39 11 c0 -8 -19 -13 -24 -6 -3 5 1 9
9 9 8 0 15 -2 15 -3z"/>
<path d="M8225 7373 c7 -27 32 -120 55 -208 23 -88 50 -189 60 -225 10 -36 40
-144 65 -240 26 -96 62 -231 80 -300 28 -102 302 -1124 335 -1251 10 -35 74
-98 940 -920 199 -189 1499 -1426 1890 -1798 107 -102 238 -226 290 -276 52
-49 138 -130 190 -181 52 -50 280 -266 505 -481 226 -214 574 -545 774 -736
201 -191 366 -346 367 -344 3 3 12 138 19 277 2 52 8 151 12 220 4 69 7 162 7
207 1 46 3 83 6 83 3 0 6 8 6 18 2 95 24 501 29 530 8 47 7 200 0 212 -5 9 -4
11 3 6 9 -5 12 13 13 66 0 114 9 161 33 181 11 10 41 35 65 55 24 20 75 66
115 102 39 36 91 81 115 101 50 41 54 30 -45 118 -27 24 -74 67 -104 95 -30
28 -95 87 -145 131 -49 44 -101 91 -115 105 -15 14 -69 63 -121 110 -51 47
-119 108 -149 136 -53 49 -141 129 -164 149 -21 19 -220 200 -236 215 -9 8
-56 51 -105 95 -48 44 -113 103 -144 131 -31 28 -139 126 -241 219 -102 92
-205 186 -230 209 -25 23 -169 154 -320 291 -151 137 -304 276 -340 309 -36
34 -85 78 -110 99 -25 21 -70 62 -100 90 -30 29 -102 95 -160 147 -58 52 -125
113 -150 136 -25 22 -79 72 -120 110 -41 38 -163 148 -270 245 -107 97 -207
187 -221 200 -14 13 -43 40 -65 59 -72 64 -278 252 -329 300 -27 25 -99 91
-160 145 -60 54 -132 119 -160 144 -173 160 -155 147 -325 239 -30 16 -111 61
-180 99 -69 38 -152 85 -185 103 -33 18 -115 64 -182 101 -67 38 -125 69 -128
69 -3 0 -39 20 -79 45 -41 25 -77 45 -80 45 -3 0 -31 15 -63 34 -179 104 -358
196 -373 191 -9 -3 -26 4 -38 15 -11 11 -28 20 -35 20 -13 0 -13 -7 -2 -47z"/>
</g>
</svg>
